<?xml version="1.0" encoding="utf-8"?>
<!-- Generator: Adobe Illustrator 28.0.0, SVG Export Plug-In . SVG Version: 6.00 Build 0)  -->
<svg version="1.1" id="Layer_1" xmlns="http://www.w3.org/2000/svg" xmlns:xlink="http://www.w3.org/1999/xlink" x="0px" y="0px"
	 viewBox="0 0 100 100" style="enable-background:new 0 0 100 100;" xml:space="preserve">
<style type="text/css">
	.st0{fill:#1279BE;}
	.st1{fill:#FBB216;}
</style>
<g>
	<path class="st0" d="M60.04,50.05L60.04,50.05c0,5.74-4.65,10.39-10.39,10.39c-5.74,0-10.39-4.65-10.39-10.38v0
		c0-2.81,1.12-5.35,2.93-7.22c1.89-1.95,4.53-3.16,7.45-3.16c2.92,0,5.57,1.21,7.45,3.16C58.92,44.7,60.04,47.24,60.04,50.05z"/>
	<g>
		<path class="st1" d="M85.91,24.36L74.13,36.14c-1.22-2.15-2.74-4.16-4.57-5.99c-1.83-1.83-3.84-3.35-5.99-4.57L75.35,13.8
			c2.01,1.42,3.92,3.04,5.72,4.84C82.87,20.44,84.49,22.35,85.91,24.36z"/>
		<path class="st1" d="M57.12,22.9c-2.58-0.7-5.25-1.04-7.91-0.99c-2.37,0.04-4.73,0.37-7.03,1l0-16.66
			c2.43-0.42,4.92-0.63,7.47-0.63c2.55,0,5.04,0.21,7.47,0.63L57.12,22.9z"/>
		<path class="st1" d="M93.44,57.52l-16.63,0c0.63-2.29,0.95-4.66,0.99-7.02c0.04-2.66-0.29-5.33-1-7.92l16.64,0
			c0.42,2.42,0.62,4.92,0.62,7.47C94.06,52.6,93.85,55.09,93.44,57.52z"/>
		<path class="st1" d="M35.73,25.57c-2.33,1.33-4.44,2.98-6.29,4.89c-1.65,1.7-3.09,3.61-4.27,5.68L13.39,24.36
			c1.42-2.01,3.03-3.92,4.83-5.73c1.8-1.8,3.72-3.41,5.73-4.84L35.73,25.57z"/>
		<path class="st1" d="M22.49,42.59c-0.7,2.58-1.04,5.25-0.99,7.91c0.04,2.37,0.37,4.73,1,7.03l-16.66,0
			c-0.42-2.43-0.63-4.92-0.63-7.47c0-2.55,0.21-5.04,0.63-7.47L22.49,42.59z"/>
	</g>
	<path class="st0" d="M92.25,92.44l-2.27-0.13l-25-0.7l-4.42,1.53c-3.52,0.9-7.11,1.35-10.91,1.35c-3.08,0-6.09-0.32-9-0.91
		c-7.78-1.6-14.81-5.23-20.53-10.32c-0.04-0.04-0.1-0.09-0.14-0.13c-1.8-1.6-3.47-3.36-5.02-5.3c-1.59-2-2.99-4.07-4.19-6.23
		l0.02-0.02c-0.29-0.53-0.57-1.06-0.84-1.59l13.42-9.87c0.96,2.5,2.28,4.84,3.89,6.95c1.44,1.89,3.09,3.59,4.96,5.08
		c0.3,0.24,0.59,0.46,0.9,0.69c4.64,3.37,10.36,5.37,16.53,5.37c6.67,0,12.8-2.32,17.63-6.2l-0.01-0.01
		c2.08-1.68,3.92-3.63,5.44-5.82c1.36-1.94,2.48-4.05,3.32-6.28l0.02,0.02l13.48,9.75c-1.09,2.21-2.37,4.35-3.87,6.42
		c-0.54,0.75-1.1,1.49-1.69,2.2c-0.04,0.04-0.07,0.09-0.11,0.13c-0.16,0.19-0.32,0.39-0.49,0.58c-0.83,0.97-1.7,1.89-2.6,2.78
		c-0.04,0.04-0.07,0.08-0.11,0.11L92.25,92.44z"/>
</g>
</svg>
